<mxfile host="app.diagrams.net" modified="2024-11-22T20:31:31.227Z" agent="Mozilla/5.0 (Windows NT 10.0; Win64; x64) AppleWebKit/537.36 (KHTML, like Gecko) Chrome/130.0.0.0 Safari/537.36" version="24.5.2" etag="HAh5cGjzjmD1_wt6VNXP" type="github">
  <diagram name="PÃ¡gina-1" id="ku7kTJ1nLdB0R0DDN7Tx">
    <mxGraphModel>
      <root>
        <mxCell id="0" />
        <mxCell id="1" parent="0" />
      </root>
    </mxGraphModel>
  </diagram>
</mxfile>
